<?xml version="1.0" encoding="UTF-8"?><svg id="_레이어_2" xmlns="http://www.w3.org/2000/svg" viewBox="0 0 216.84 152.92"><defs><style>.cls-1{fill:#fffffd;}</style></defs><g id="_레이어_1-2"><g><g><path class="cls-1" d="M108.49,27.74V112.77h-8.82l-38.11-38.11L108.49,27.74m4-9.66l-56.58,56.58,42.11,42.11h14.47V18.09h0Z"/><path class="cls-1" d="M141.58,5.66l69.6,69.6-72.01,72.01-23.49-23.49h8.82V22.74l17.09-17.09m0-5.66l-21.09,21.09V119.77h-14.47l33.15,33.15,77.67-77.67L141.58,0h0Z"/></g><path class="cls-1" d="M100.7,7.26v8.96l-55.55,55.55-2.83,2.83,2.83,2.83,33.24,33.24H4V7.26H100.7m4-4H0V114.67H88.05l-40.07-40.07L104.7,17.88V3.26h0Z"/></g></g></svg>